<?xml version="1.0" standalone="no"?>
<!DOCTYPE svg PUBLIC "-//W3C//DTD SVG 20010904//EN"
 "http://www.w3.org/TR/2001/REC-SVG-20010904/DTD/svg10.dtd">
<svg version="1.0" xmlns="http://www.w3.org/2000/svg"
 width="512.000000pt" height="512.000000pt" viewBox="0 0 512.000000 512.000000"
 preserveAspectRatio="xMidYMid meet">

<g transform="translate(0.000000,512.000000) scale(0.100000,-0.100000)"
fill="#000000" stroke="none">
<path d="M2525 4926 c-58 -14 -62 -16 -280 -141 -92 -52 -169 -95 -171 -95 -3
0 -17 -8 -32 -18 -94 -65 -224 -144 -262 -161 -46 -20 -189 -100 -212 -118 -7
-6 -33 -21 -58 -34 -25 -13 -52 -29 -60 -35 -8 -6 -43 -27 -78 -45 -34 -19
-79 -44 -100 -56 -20 -12 -53 -31 -72 -41 -69 -37 -227 -132 -330 -198 -58
-37 -147 -89 -197 -116 -101 -54 -138 -92 -169 -173 -18 -48 -19 -93 -19
-1135 0 -1251 -7 -1162 92 -1256 30 -29 80 -66 111 -83 31 -17 82 -44 113 -60
31 -17 76 -43 100 -59 41 -28 174 -103 209 -119 8 -3 41 -24 73 -45 32 -21 60
-38 62 -38 2 0 28 -14 57 -31 66 -40 80 -48 258 -150 80 -47 156 -90 170 -97
14 -7 48 -26 75 -43 58 -36 121 -69 256 -132 53 -25 119 -61 145 -80 52 -36
202 -125 282 -167 35 -18 63 -25 107 -25 75 0 106 15 449 212 138 80 276 159
306 176 30 16 67 38 82 49 14 10 28 18 31 18 4 0 194 109 262 151 17 10 53 31
80 46 28 15 59 33 70 40 11 6 36 20 55 31 19 10 51 28 70 39 54 31 148 86 220
127 36 20 72 41 80 46 8 5 56 32 105 61 50 29 106 66 127 83 20 17 51 40 69
51 24 15 41 38 61 85 l27 65 1 1105 0 1105 -25 50 c-38 80 -63 102 -192 171
-37 20 -84 49 -103 64 -19 15 -47 33 -62 41 -24 12 -408 235 -456 264 -9 6
-39 23 -67 38 -27 15 -57 32 -65 37 -15 9 -106 63 -145 84 -11 6 -74 43 -140
82 -205 121 -658 379 -705 402 -35 17 -147 47 -154 41 0 0 -23 -6 -51 -13z
m175 -116 c30 -16 84 -44 120 -61 36 -17 86 -47 113 -65 26 -19 51 -34 55 -34
4 0 14 -6 20 -12 7 -7 42 -29 77 -48 76 -42 975 -560 1185 -683 19 -11 68 -38
109 -59 161 -84 204 -133 219 -250 5 -35 8 -522 7 -1083 l-1 -1020 -24 -55
c-13 -30 -33 -63 -44 -73 -30 -25 -113 -80 -166 -109 -25 -14 -61 -35 -80 -47
-19 -11 -46 -26 -60 -33 -26 -13 -98 -57 -185 -113 -27 -17 -90 -53 -140 -80
-88 -47 -215 -117 -245 -135 -8 -5 -58 -34 -110 -65 -52 -31 -102 -60 -110
-65 -25 -16 -269 -154 -298 -169 -15 -8 -49 -28 -77 -45 -65 -41 -74 -46 -180
-106 -49 -28 -97 -55 -105 -60 -8 -6 -41 -23 -72 -40 -74 -39 -149 -41 -223
-6 -49 23 -264 144 -380 214 -89 54 -114 69 -180 103 -33 17 -71 39 -85 49
-14 10 -41 27 -60 38 -122 69 -595 343 -610 353 -8 5 -71 41 -140 80 -69 39
-129 75 -135 79 -5 4 -30 19 -55 32 -105 58 -127 72 -171 104 -32 24 -53 49
-68 84 l-21 50 2 1092 3 1093 24 41 c17 30 44 54 100 87 73 44 938 542 1031
594 25 14 68 41 96 59 29 19 64 38 78 44 15 5 51 26 81 45 31 19 58 35 61 35
3 0 18 8 32 19 15 10 52 32 82 48 30 17 73 41 95 53 22 13 51 30 65 38 14 7
43 25 65 38 22 13 51 29 65 35 14 6 36 17 50 25 44 24 128 17 190 -16z"/>
<path d="M1586 3653 c-3 -4 -6 -501 -6 -1105 l1 -1098 369 0 370 0 0 301 0
301 89 -4 c83 -3 92 -5 120 -32 17 -16 41 -56 55 -90 23 -58 127 -295 184
-418 l26 -58 383 0 c211 0 383 2 383 4 0 3 -21 49 -94 211 -13 28 -35 79 -51
115 -91 214 -144 323 -176 363 -17 21 -28 44 -26 51 3 7 42 39 87 70 91 64
156 144 216 266 55 112 74 195 74 330 0 185 -38 328 -127 476 -50 82 -94 126
-186 188 -136 90 -191 108 -387 126 -127 11 -1293 14 -1304 3z m1142 -587 c58
-29 74 -47 96 -109 23 -62 19 -166 -9 -222 -25 -49 -84 -91 -150 -105 -28 -7
-113 -10 -195 -8 l-145 3 -3 220 c-1 121 0 225 2 232 4 10 48 13 181 13 165 0
178 -1 223 -24z"/>
</g>
</svg>
